<svg xmlns="http://www.w3.org/2000/svg" width="691" height="77" viewBox="0 0 691 77" fill="none">
<rect width="691" height="77" fill="white"/>
<path d="M334.304 13.208C334.304 9.624 336.864 7.448 340 7.448C340.768 7.448 341.856 7.64 342.432 7.832L342.816 1.496C341.792 1.048 340.32 0.791996 338.976 0.791996C332.064 0.791996 327.2 5.144 327.2 12.888V15.704H321.184V22.488H327.2V47H334.304V22.488H342.496V15.704H334.304V13.208Z" fill="black"/>
<path d="M360.161 15.064C351.009 15.064 343.969 22.104 343.969 31.384C343.969 40.664 351.009 47.64 360.161 47.64C369.313 47.64 376.417 40.664 376.417 31.384C376.417 22.104 369.313 15.064 360.161 15.064ZM360.161 21.912C365.345 21.912 369.377 26.008 369.377 31.384C369.377 36.696 365.345 40.792 360.161 40.792C354.977 40.792 351.009 36.696 351.009 31.384C351.009 26.008 354.977 21.912 360.161 21.912Z" fill="black"/>
<path d="M397.485 15.064C394.605 15.064 391.085 16.984 389.485 19.992V15.704H382.381V47H389.485V27.032C391.149 23.576 394.541 21.656 396.909 21.656C398.125 21.656 399.533 21.912 400.621 22.296L401.069 15.576C400.173 15.256 398.957 15.064 397.485 15.064Z" fill="black"/>
<path d="M449.76 2.2V20.184H428.064V2.2H420.576V47H428.064V27.352H449.76V47H457.248V2.2H449.76Z" fill="black"/>
<path d="M487.467 15.704V36.12C485.867 38.808 482.795 40.536 479.659 40.536C475.179 40.536 472.235 37.464 472.235 32.408V15.704H465.131V33.496C465.131 42.2 470.059 47.64 477.931 47.64C481.835 47.64 485.611 45.784 487.467 42.776V47H494.635V15.704H487.467Z" fill="black"/>
<path d="M538.419 15.064C533.875 15.064 530.291 17.624 528.179 20.12C526.195 16.664 523.059 15.064 518.771 15.064C513.907 15.064 510.771 17.688 509.235 19.8V15.704H502.131V47H509.235V26.008C510.515 23.512 513.139 21.656 516.339 21.656C520.307 21.656 523.059 24.536 523.059 29.208V47H530.227V27.032L530.035 25.944C531.443 23.576 534.323 21.656 537.139 21.656C541.363 21.656 543.987 24.536 543.987 29.208V47H551.219V27.864C551.219 20.12 545.971 15.064 538.419 15.064Z" fill="black"/>
<path d="M582.118 15.704V19.928C580.454 17.112 576.294 15.064 572.134 15.064C563.686 15.064 557.094 22.232 557.094 31.32C557.094 40.472 563.686 47.64 572.134 47.64C576.294 47.64 580.454 45.592 582.118 42.776V47H589.222V15.704H582.118ZM573.606 40.856C568.23 40.856 564.134 36.76 564.134 31.32C564.134 25.88 568.23 21.848 573.606 21.848C577.19 21.848 580.582 23.832 582.118 26.584V36.184C580.582 38.872 577.126 40.856 573.606 40.856Z" fill="black"/>
<path d="M613.46 15.064C609.492 15.064 605.78 16.92 603.86 19.928V15.704H596.756V47H603.86V26.52C605.46 23.832 608.532 22.168 611.732 22.168C616.148 22.168 619.092 25.24 619.092 30.296V47H626.26V29.144C626.26 20.504 621.268 15.064 613.46 15.064Z" fill="black"/>
<path d="M645.34 47.704C652.508 47.704 657.564 43.608 657.564 37.976C657.564 26.392 640.028 29.656 640.028 24.344C640.028 22.296 641.756 21.016 644.38 21.016C647.004 21.016 651.484 22.168 653.98 24.344L656.796 18.84C653.98 16.28 649.436 15.064 645.084 15.064C637.916 15.064 632.924 19.096 632.924 24.92C632.924 36.504 650.332 32.472 650.332 38.232C650.332 40.216 648.284 41.688 645.148 41.688C641.628 41.688 637.02 40.088 634.588 37.784L631.772 43.16C634.844 45.912 640.284 47.704 645.34 47.704Z" fill="black"/>
<path d="M67.14 42.56L59.52 28.94C66.78 27.38 70.92 23.12 70.92 17.36C70.92 10.7 65.76 6.92 57.18 6.92H39.36L39.24 7.76C42.54 7.88 44.4 9.08 43.92 12.08L39.18 41.84C38.7 44.96 36.72 45.92 33.12 46.16L33 47H50.22L50.34 46.16C46.92 46.04 45.06 44.9 45.72 41.84L47.7 29.6H52.62L60.36 43.82C60.9 44.9 61.38 45.92 61.5 47H72.66L72.84 46.16C70.56 45.98 68.22 44.54 67.14 42.56ZM51.06 8.6H55.26C61.14 8.6 64.02 12.08 64.02 17.42C64.02 23 59.88 27.92 52.26 27.92H47.94L51.06 8.6Z" fill="black"/>
<path d="M90.4753 43.04C85.1953 43.04 82.0153 39.08 81.8953 32.96L85.7353 32.18C95.2153 30.32 102.595 28.4 102.595 22.4C102.595 18.8 99.2353 15.92 92.5153 15.92C82.5553 15.92 75.3553 23.84 75.3553 34.46C75.3553 42.38 80.0953 47.84 87.5953 47.84C93.9553 47.84 98.7553 44.42 101.155 38.36L100.495 38C97.9753 41.54 94.1953 43.04 90.4753 43.04ZM91.5553 17.6C94.7353 17.6 96.3553 20.12 96.3553 22.22C96.3553 27.02 91.0153 29.24 85.6153 30.5L81.9553 31.28C82.3753 24.38 86.0953 17.6 91.5553 17.6Z" fill="black"/>
<path d="M115.784 47.84C122.444 47.84 128.204 44 128.204 37.64C128.204 27.2 112.664 30.2 112.664 22.94C112.664 19.88 114.884 17.6 118.424 17.6C121.964 17.6 124.484 20.3 125.204 24.44L129.944 21.62C128.744 18.08 124.664 15.92 119.144 15.92C112.664 15.92 107.324 19.34 107.324 25.1C107.324 35.18 122.744 32.18 122.744 40.16C122.744 43.7 120.044 46.16 116.444 46.16C112.364 46.16 109.484 43.04 109.064 38.3L103.784 41.24C105.164 44.96 109.784 47.84 115.784 47.84Z" fill="black"/>
<path d="M145.079 47.84C155.279 47.84 162.539 39.68 162.539 29.42C162.539 21.02 157.619 15.92 150.179 15.92C140.159 15.92 132.719 23.9 132.719 34.34C132.719 42.8 137.639 47.84 145.079 47.84ZM146.279 46.16C141.779 46.16 139.379 41.06 139.379 34.1C139.379 26.3 143.159 17.6 149.099 17.6C153.479 17.6 155.939 22.7 155.939 29.6C155.939 37.22 152.399 46.16 146.279 46.16Z" fill="black"/>
<path d="M195.583 44.24C193.543 44.06 192.823 43.22 193.183 41.06L197.023 16.82H190.903L187.303 39.62C184.423 42.5 181.663 43.82 178.843 43.82C175.663 43.82 173.983 41.48 174.523 38.06L176.923 23.48C177.043 22.7 177.283 21.44 177.283 20.3C177.283 17.42 175.483 15.92 172.543 15.92C169.423 15.92 167.083 17.78 165.283 20.48L165.883 21.02C167.503 19.4 168.403 19.04 169.303 19.04C170.443 19.04 171.103 19.76 171.103 21.08C171.103 21.8 170.983 22.64 170.863 23.18L168.283 38.72C167.443 44.06 170.443 47.9 175.663 47.9C179.803 47.9 183.703 45.62 187.063 41.54L186.403 47.9H187.243L196.963 45.14L197.083 44.3L195.583 44.24Z" fill="black"/>
<path d="M220.737 15.86C217.377 15.86 213.717 18.5 210.777 24.26L212.097 15.92H211.257L201.117 18.62L200.997 19.46L202.257 19.52C204.297 19.7 205.257 20.6 204.957 22.7L201.117 47H207.177L210.417 26.42C212.757 23 215.877 21.2 218.517 21.2C219.777 21.2 220.977 21.5 221.817 22.16L223.077 16.4C222.297 16.04 221.517 15.86 220.737 15.86Z" fill="black"/>
<path d="M235.074 47.84C241.554 47.84 246.654 44.36 249.174 37.64L248.514 37.4C245.934 41.42 242.034 42.92 238.254 42.92C232.794 42.92 229.494 38.6 229.494 32.12C229.494 24.56 233.574 17.6 239.154 17.6C243.594 17.6 244.614 22.28 244.674 24.98L250.434 23.36C250.194 19.94 246.894 15.92 239.994 15.92C230.334 15.92 222.894 23.48 222.894 34.58C222.894 42.56 227.754 47.84 235.074 47.84Z" fill="black"/>
<path d="M267.839 43.04C262.559 43.04 259.379 39.08 259.259 32.96L263.099 32.18C272.579 30.32 279.959 28.4 279.959 22.4C279.959 18.8 276.599 15.92 269.879 15.92C259.919 15.92 252.719 23.84 252.719 34.46C252.719 42.38 257.459 47.84 264.959 47.84C271.319 47.84 276.119 44.42 278.519 38.36L277.859 38C275.339 41.54 271.559 43.04 267.839 43.04ZM268.919 17.6C272.099 17.6 273.719 20.12 273.719 22.22C273.719 27.02 268.379 29.24 262.979 30.5L259.319 31.28C259.739 24.38 263.459 17.6 268.919 17.6Z" fill="black"/>
<path d="M293.147 47.84C299.807 47.84 305.567 44 305.567 37.64C305.567 27.2 290.027 30.2 290.027 22.94C290.027 19.88 292.247 17.6 295.787 17.6C299.327 17.6 301.847 20.3 302.567 24.44L307.307 21.62C306.107 18.08 302.027 15.92 296.507 15.92C290.027 15.92 284.687 19.34 284.687 25.1C284.687 35.18 300.107 32.18 300.107 40.16C300.107 43.7 297.407 46.16 293.807 46.16C289.727 46.16 286.847 43.04 286.427 38.3L281.147 41.24C282.527 44.96 287.147 47.84 293.147 47.84Z" fill="black"/>
<path d="M172 66.9V76H178.097V74.154H173.924V66.9H172Z" fill="black"/>
<path d="M187.206 76H189.299L185.672 66.9H184.112L180.498 76H182.539L183.124 74.479H186.634L187.206 76ZM183.761 72.828L184.892 69.916L185.997 72.828H183.761Z" fill="black"/>
<path d="M197.463 66.9H190.222V68.746H192.874V76H194.798V68.746H197.463V66.9Z" fill="black"/>
<path d="M207.258 66.9H200.017V68.746H202.669V76H204.593V68.746H207.258V66.9Z" fill="black"/>
<path d="M210.215 66.9V76H212.139V66.9H210.215Z" fill="black"/>
<path d="M223.849 73.595L222.081 72.789C221.795 73.686 220.95 74.258 219.858 74.258C218.311 74.258 217.245 73.049 217.245 71.45C217.245 69.838 218.311 68.642 219.858 68.642C220.885 68.642 221.691 69.162 222.029 69.955L223.745 69.136C223.303 67.745 221.704 66.77 219.858 66.77C217.245 66.77 215.269 68.811 215.269 71.45C215.269 74.076 217.245 76.13 219.858 76.13C221.756 76.13 223.407 75.09 223.849 73.595Z" fill="black"/>
<path d="M226.872 66.9V76H232.449V74.154H228.796V72.23H232.046V70.384H228.796V68.746H232.449V66.9H226.872Z" fill="black"/>
<path d="M247.585 76L245.206 72.23C246.103 71.788 246.662 70.878 246.662 69.708C246.662 68.148 245.323 66.9 243.789 66.9H240.279V76H242.203V72.529H243.191L245.245 76H247.585ZM242.203 68.759H243.594C244.218 68.759 244.712 69.214 244.712 69.799C244.712 70.41 244.218 70.865 243.594 70.865H242.203V68.759Z" fill="black"/>
<path d="M250.303 66.9V76H255.88V74.154H252.227V72.23H255.477V70.384H252.227V68.746H255.88V66.9H250.303Z" fill="black"/>
<path d="M262.281 66.77C260.409 66.77 259.096 67.966 259.096 69.513C259.096 72.789 263.711 71.775 263.711 73.309C263.711 73.894 263.152 74.258 262.333 74.258C261.254 74.258 260.487 73.712 259.798 72.997L258.563 74.401C259.343 75.389 260.929 76.13 262.333 76.13C264.465 76.13 265.687 74.739 265.687 73.296C265.687 69.981 261.033 70.917 261.033 69.37C261.033 68.928 261.475 68.629 262.125 68.629C262.866 68.629 263.75 69.019 264.426 69.682L265.544 68.161C264.855 67.368 263.451 66.77 262.281 66.77Z" fill="black"/>
<path d="M273.157 66.77C270.505 66.77 268.516 68.785 268.516 71.45C268.516 74.115 270.505 76.13 273.157 76.13C275.809 76.13 277.811 74.115 277.811 71.45C277.811 68.785 275.809 66.77 273.157 66.77ZM273.157 68.642C274.678 68.642 275.822 69.851 275.822 71.45C275.822 73.049 274.678 74.258 273.157 74.258C271.636 74.258 270.492 73.049 270.492 71.45C270.492 69.851 271.636 68.642 273.157 68.642Z" fill="black"/>
<path d="M284.546 76.117C286.613 76.117 288.147 74.57 288.147 72.477V66.9H286.223V72.477C286.223 73.491 285.508 74.245 284.546 74.245C283.584 74.245 282.856 73.491 282.856 72.477V66.9H280.932V72.477C280.932 74.57 282.466 76.117 284.546 76.117Z" fill="black"/>
<path d="M298.832 76L296.453 72.23C297.35 71.788 297.909 70.878 297.909 69.708C297.909 68.148 296.57 66.9 295.036 66.9H291.526V76H293.45V72.529H294.438L296.492 76H298.832ZM293.45 68.759H294.841C295.465 68.759 295.959 69.214 295.959 69.799C295.959 70.41 295.465 70.865 294.841 70.865H293.45V68.759Z" fill="black"/>
<path d="M309.324 73.595L307.556 72.789C307.27 73.686 306.425 74.258 305.333 74.258C303.786 74.258 302.72 73.049 302.72 71.45C302.72 69.838 303.786 68.642 305.333 68.642C306.36 68.642 307.166 69.162 307.504 69.955L309.22 69.136C308.778 67.745 307.179 66.77 305.333 66.77C302.72 66.77 300.744 68.811 300.744 71.45C300.744 74.076 302.72 76.13 305.333 76.13C307.231 76.13 308.882 75.09 309.324 73.595Z" fill="black"/>
<path d="M312.348 66.9V76H317.925V74.154H314.272V72.23H317.522V70.384H314.272V68.746H317.925V66.9H312.348Z" fill="black"/>
<path d="M324.326 66.77C322.454 66.77 321.141 67.966 321.141 69.513C321.141 72.789 325.756 71.775 325.756 73.309C325.756 73.894 325.197 74.258 324.378 74.258C323.299 74.258 322.532 73.712 321.843 72.997L320.608 74.401C321.388 75.389 322.974 76.13 324.378 76.13C326.51 76.13 327.732 74.739 327.732 73.296C327.732 69.981 323.078 70.917 323.078 69.37C323.078 68.928 323.52 68.629 324.17 68.629C324.911 68.629 325.795 69.019 326.471 69.682L327.589 68.161C326.9 67.368 325.496 66.77 324.326 66.77Z" fill="black"/>
<path d="M335.461 66.9V76H337.385V72.49H340.635V70.644H337.385V68.746H341.038V66.9H335.461Z" fill="black"/>
<path d="M348.33 66.77C345.678 66.77 343.689 68.785 343.689 71.45C343.689 74.115 345.678 76.13 348.33 76.13C350.982 76.13 352.984 74.115 352.984 71.45C352.984 68.785 350.982 66.77 348.33 66.77ZM348.33 68.642C349.851 68.642 350.995 69.851 350.995 71.45C350.995 73.049 349.851 74.258 348.33 74.258C346.809 74.258 345.665 73.049 345.665 71.45C345.665 69.851 346.809 68.642 348.33 68.642Z" fill="black"/>
<path d="M363.41 76L361.031 72.23C361.928 71.788 362.488 70.878 362.488 69.708C362.488 68.148 361.149 66.9 359.615 66.9H356.104V76H358.029V72.529H359.016L361.07 76H363.41ZM358.029 68.759H359.419C360.043 68.759 360.537 69.214 360.537 69.799C360.537 70.41 360.043 70.865 359.419 70.865H358.029V68.759Z" fill="black"/>
<path d="M376.77 66.9V70.371H372.896V66.9H370.972V76H372.896V72.217H376.77V76H378.707V66.9H376.77Z" fill="black"/>
<path d="M385.688 76.117C387.755 76.117 389.289 74.57 389.289 72.477V66.9H387.365V72.477C387.365 73.491 386.65 74.245 385.688 74.245C384.726 74.245 383.998 73.491 383.998 72.477V66.9H382.074V72.477C382.074 74.57 383.608 76.117 385.688 76.117Z" fill="black"/>
<path d="M392.669 76H394.593V70.657L396.868 76H398.259L400.586 70.657V76H402.51V66.9H400.547L397.713 73.166L395.009 66.9H392.669V76Z" fill="black"/>
<path d="M411.989 76H414.082L410.455 66.9H408.895L405.281 76H407.322L407.907 74.479H411.417L411.989 76ZM408.544 72.828L409.675 69.916L410.78 72.828H408.544Z" fill="black"/>
<path d="M416.854 66.9V76H418.779V70.696L422.509 76H424.121V66.9H422.197V72.204L418.492 66.9H416.854Z" fill="black"/>
<path d="M430.724 66.77C428.852 66.77 427.539 67.966 427.539 69.513C427.539 72.789 432.154 71.775 432.154 73.309C432.154 73.894 431.595 74.258 430.776 74.258C429.697 74.258 428.93 73.712 428.241 72.997L427.006 74.401C427.786 75.389 429.372 76.13 430.776 76.13C432.908 76.13 434.13 74.739 434.13 73.296C434.13 69.981 429.476 70.917 429.476 69.37C429.476 68.928 429.918 68.629 430.568 68.629C431.309 68.629 432.193 69.019 432.869 69.682L433.987 68.161C433.298 67.368 431.894 66.77 430.724 66.77Z" fill="black"/>
<path d="M441.859 76H443.783V70.657L446.058 76H447.449L449.776 70.657V76H451.7V66.9H449.737L446.903 73.166L444.199 66.9H441.859V76Z" fill="black"/>
<path d="M461.179 76H463.272L459.645 66.9H458.085L454.471 76H456.512L457.097 74.479H460.607L461.179 76ZM457.734 72.828L458.865 69.916L459.97 72.828H457.734Z" fill="black"/>
<path d="M469.789 72.412H471.765V73.673C471.31 74.05 470.66 74.258 469.867 74.258C468.346 74.258 467.241 73.062 467.241 71.411C467.241 69.799 468.333 68.642 469.854 68.642C470.855 68.642 471.713 69.162 472.025 69.955L473.741 69.136C473.299 67.745 471.7 66.77 469.854 66.77C467.254 66.77 465.265 68.785 465.265 71.411C465.265 74.024 467.267 76.117 469.867 76.117C471.505 76.117 472.883 75.415 473.702 74.336V70.852H469.789V72.412Z" fill="black"/>
<path d="M482.902 76H484.995L481.368 66.9H479.808L476.194 76H478.235L478.82 74.479H482.33L482.902 76ZM479.457 72.828L480.588 69.916L481.693 72.828H479.457Z" fill="black"/>
<path d="M487.664 66.9V68.746H491.798L487.404 74.7V76H494.45V74.154H490.03L494.411 68.2V66.9H487.664Z" fill="black"/>
<path d="M497.524 66.9V76H499.448V66.9H497.524Z" fill="black"/>
<path d="M502.825 66.9V76H504.749V70.696L508.48 76H510.092V66.9H508.168V72.204L504.463 66.9H502.825Z" fill="black"/>
<path d="M513.471 66.9V76H519.048V74.154H515.395V72.23H518.645V70.384H515.395V68.746H519.048V66.9H513.471Z" fill="black"/>
<path d="M674.026 2.4H664V4.956H667.672V15H670.336V4.956H674.026V2.4Z" fill="black"/>
<path d="M677.351 15H680.015V7.602L683.165 15H685.091L688.313 7.602V15H690.977V2.4H688.259L684.335 11.076L680.591 2.4H677.351V15Z" fill="black"/>
</svg>